
<svg version="1.0" xmlns="http://www.w3.org/2000/svg" xmlns:xlink="http://www.w3.org/1999/xlink" x="0px" y="0px"
	 width="313.175px" height="78.625px" viewBox="2.86 1 313.175 78.625" enable-background="new 2.86 1 313.175 78.625"
	 xml:space="preserve">
<g>
	<rect x="2.86" y="1" width="25.055" height="78.625"/>
	<polygon points="59.232,1 34.178,14.105 34.178,79.625 59.232,79.625 	"/>
	<polygon points="78.022,1 78.022,66.522 103.077,79.625 103.077,1 	"/>
	<polygon points="109.34,1 109.34,79.625 134.392,66.522 134.392,1 	"/>
	<rect x="290.978" y="1" width="25.057" height="78.625"/>
	<polygon points="284.716,1 259.66,14.105 259.66,66.522 284.716,79.625 	"/>
	<polygon points="209.554,1 184.5,14.105 184.5,79.625 209.554,79.625 	"/>
	<polygon points="240.873,1 215.816,14.105 215.816,79.625 240.873,79.625 	"/>
	<rect x="153.182" y="1" width="25.054" height="78.625"/>
</g>
</svg>
