<?xml version="1.0" encoding="utf-8"?>
<!-- Generator: Adobe Illustrator 16.0.0, SVG Export Plug-In . SVG Version: 6.00 Build 0)  -->
<!DOCTYPE svg PUBLIC "-//W3C//DTD SVG 1.1//EN" "http://www.w3.org/Graphics/SVG/1.1/DTD/svg11.dtd">
<svg version="1.1" id="Layer_1" xmlns="http://www.w3.org/2000/svg" xmlns:xlink="http://www.w3.org/1999/xlink" x="0px" y="0px"
	 width="152.736px" height="18.962px" viewBox="0 0 152.736 18.962" enable-background="new 0 0 152.736 18.962"
	 xml:space="preserve">
<g>
	<path fill="#FFFFFF" d="M7.321,11.665v3.456c0,1.368,0.768,1.681,3.072,1.776v1.824H0v-1.824c1.8-0.072,2.04-0.408,2.04-1.776
		V3.601C2.04,2.232,1.8,1.896,0,1.824V0h9.913c5.449,0,7.705,2.496,7.705,5.784c0,3.793-2.448,5.881-7.609,5.881H7.321z
		 M7.321,9.817h1.368c2.4,0,3.601-1.44,3.601-4.033c0-2.376-1.464-3.768-3.816-3.768H7.321V9.817z"/>
	<path fill="#FFFFFF" d="M25.177,9.337c1.032-3.336,2.016-4.128,3.984-4.128c0.552,0,0.936,0.119,1.248,0.287v4.104h-0.624
		c-1.536,0-3.576,0.072-4.608,0.696v5.4c0,1.057,0.528,1.128,1.872,1.32v1.704h-8.233v-1.704c1.104-0.145,1.417-0.264,1.417-1.368
		V8.833L18.936,7.32V6.408l5.376-1.344h0.984L25.177,9.337z"/>
	<path fill="#FFFFFF" d="M43.873,10.561v0.961h-8.161c0,2.304,1.584,3.768,3.72,3.768c1.584,0,2.592-0.576,3.432-1.607l1.08,0.624
		c-0.768,2.399-2.568,4.656-6.096,4.656c-3.769,0-6.673-2.16-6.673-6.433c0-4.417,3.216-7.32,7.057-7.32
		C41.929,5.209,43.873,7.585,43.873,10.561z M35.76,10.033h3.769C39.48,8.112,39,6.937,37.8,6.937
		C36.457,6.937,35.928,8.281,35.76,10.033z"/>
	<path fill="#FFFFFF" d="M55.561,9.745c0-0.889-0.384-1.416-1.488-1.416c-0.888,0-1.68,0.144-2.28,0.312v7.009
		c0,1.104,0.312,1.224,1.416,1.368v1.704h-7.777v-1.704c1.104-0.145,1.417-0.264,1.417-1.368V8.833L45.552,7.32V6.408l5.4-1.344
		h0.96l-0.12,2.496c1.056-1.152,2.52-2.352,4.68-2.352c2.424,0,4.033,1.296,4.033,3.936v6.505c0,1.104,0.312,1.224,1.416,1.368
		v1.704h-7.777v-1.704c1.104-0.145,1.416-0.264,1.416-1.368V9.745z"/>
	<path fill="#FFFFFF" d="M75.793,10.561v0.961h-8.161c0,2.304,1.585,3.768,3.721,3.768c1.584,0,2.592-0.576,3.433-1.607l1.08,0.624
		c-0.769,2.399-2.568,4.656-6.097,4.656c-3.769,0-6.673-2.16-6.673-6.433c0-4.417,3.216-7.32,7.057-7.32
		C73.849,5.209,75.793,7.585,75.793,10.561z M67.681,10.033h3.768c-0.048-1.921-0.527-3.097-1.728-3.097
		C68.376,6.937,67.849,8.281,67.681,10.033z"/>
	<path fill="#FFFFFF" d="M77.231,17.521l7.201-10.272h-1.969c-1.224,0-1.68,0.768-2.952,3.336h-1.776l0.337-5.904h1.655l0.288,0.768
		h10.346v1.272l-7.057,10.177h2.111c1.656,0,2.064-0.648,3.457-3.288h1.8l-0.576,5.112H77.231V17.521z"/>
	<path fill="#FFFFFF" d="M104.16,11.665v3.456c0,1.368,0.769,1.681,3.072,1.776v1.824H96.84v-1.824c1.8-0.072,2.04-0.408,2.04-1.776
		V3.601c0-1.368-0.24-1.704-2.04-1.776V0h9.913c5.448,0,7.704,2.496,7.704,5.784c0,3.793-2.448,5.881-7.608,5.881H104.16z
		 M104.16,9.817h1.368c2.4,0,3.601-1.44,3.601-4.033c0-2.376-1.464-3.768-3.816-3.768h-1.152V9.817z"/>
	<path fill="#FFFFFF" d="M127.416,15.121c0,0.672,0.072,1.177,0.696,1.177c0.216,0,0.696-0.049,1.056-0.145l0.24,1.32
		c-0.84,0.816-2.376,1.488-3.889,1.488c-1.607,0-2.472-0.792-2.976-2.089c-0.889,1.152-2.04,1.992-4.057,1.992
		c-2.112,0-3.48-1.248-3.48-3.408c0-2.111,1.393-2.784,3.24-3.384l4.225-1.345V9.217c0-1.896-0.504-2.376-1.368-2.376
		c-0.816,0-1.2,0.624-1.2,1.44c0,0.575,0.096,1.128,0.264,1.728l-3.216,0.456c-0.768-0.24-1.2-0.912-1.2-1.729
		c0-2.376,2.376-3.527,5.736-3.527c3.721,0,5.929,0.983,5.929,5.4V15.121z M122.472,15.793v-3.672l-1.536,0.6
		c-0.792,0.36-1.032,0.816-1.032,1.608c0,1.128,0.48,1.656,1.44,1.656C121.752,15.985,122.159,15.913,122.472,15.793z"/>
	<path fill="#FFFFFF" d="M136.607,9.337c1.032-3.336,2.017-4.128,3.984-4.128c0.553,0,0.937,0.119,1.248,0.287v4.104h-0.624
		c-1.536,0-3.576,0.072-4.608,0.696v5.4c0,1.057,0.528,1.128,1.873,1.32v1.704h-8.233v-1.704c1.104-0.145,1.416-0.264,1.416-1.368
		V8.833l-1.296-1.513V6.408l5.377-1.344h0.983L136.607,9.337z"/>
	<path fill="#FFFFFF" d="M148.872,5.448h3.191V7.32h-3.191v7.153c0,1.032,0.384,1.488,1.319,1.488c0.696,0,1.345-0.312,1.896-0.601
		l0.648,1.32c-1.272,1.368-2.713,2.28-4.921,2.28c-2.112,0-3.889-0.937-3.889-4.032V7.32h-1.848V5.929
		c1.729-0.504,3.816-2.064,5.112-3.576h1.681V5.448z"/>
</g>
</svg>
