<?xml version="1.0" encoding="utf-8"?>
<!-- Generator: Adobe Illustrator 16.0.0, SVG Export Plug-In . SVG Version: 6.00 Build 0)  -->
<!DOCTYPE svg PUBLIC "-//W3C//DTD SVG 1.1//EN" "http://www.w3.org/Graphics/SVG/1.1/DTD/svg11.dtd">
<svg version="1.1" id="Layer_1" xmlns="http://www.w3.org/2000/svg" xmlns:xlink="http://www.w3.org/1999/xlink" x="0px" y="0px"
	 width="173.016px" height="31.972px" viewBox="0 0 173.016 31.972" enable-background="new 0 0 173.016 31.972"
	 xml:space="preserve">
<g>
	<g>
		<path d="M15.518,0C6.961,0,0,7.17,0,15.986c0,8.814,6.961,15.985,15.518,15.985c8.555,0,15.515-7.171,15.515-15.985
			C31.032,7.17,24.072,0,15.518,0z M20.369,8.031h-9.706l4.854-6.874L20.369,8.031z M23.964,19.433v8.499l-7.851-2.626
			L23.964,19.433z M15.762,24.932v-8.6l7.961,2.643L15.762,24.932z M15.911,15.852l4.928-7.004l3.041,9.646L15.911,15.852z
			 M15.518,15.551l-4.926-7.003h9.85L15.518,15.551z M7.309,18.975l7.962-2.643v8.6L7.309,18.975z M14.915,25.306l-7.843,2.626
			v-8.499L14.915,25.306z M7.15,18.493l3.047-9.646l4.92,7.004L7.15,18.493z M15.13,0.632L9.92,8.023l-8.454,2.83
			C3.527,4.882,8.989,0.799,15.13,0.632z M6.461,28.18c-3.719-2.94-5.854-7.379-5.854-12.193c0-1.501,0.215-2.984,0.628-4.408
			l5.227,7.412V28.18z M1.85,11.385l7.847-2.629L6.701,18.26L1.85,11.385z M15.518,31.343c-3.054,0-5.983-0.947-8.487-2.737
			l8.487-2.841L24,28.605C21.498,30.396,18.566,31.343,15.518,31.343z M21.338,8.756l7.845,2.629l-4.848,6.875L21.338,8.756z
			 M30.424,15.986c0,4.814-2.134,9.253-5.852,12.193V18.99l5.226-7.412C30.213,13.002,30.424,14.485,30.424,15.986z M21.115,8.023
			l-5.217-7.392c6.146,0.167,11.608,4.25,13.67,10.222L21.115,8.023z M103.914,10.186l-5.63,14.056h2.319l1.246-3.157h5.32
			l1.225,3.157h2.323l-5.576-14.056H103.914z M102.589,19.039l1.934-4.898l1.931,4.898H102.589z M121.181,20.104l-7.207-9.919
			h-1.228v14.056h2.102v-9.917l7.211,9.917h1.227V10.186h-2.104V20.104z M132.598,12.094c1.508,0,2.769,0.536,3.781,1.607
			l1.361-1.306c-1.398-1.552-3.113-2.328-5.143-2.328c-1.919,0-3.562,0.698-4.909,2.096c-1.351,1.399-2.024,3.092-2.024,5.069
			c0,1.982,0.674,3.671,2.024,5.069c1.348,1.403,2.99,2.096,4.909,2.096c2.029,0,3.744-0.775,5.143-2.322v-5.407h-5.215v1.668h3.11
			v2.911c-0.853,0.735-1.865,1.107-3.038,1.107c-1.361,0-2.509-0.488-3.434-1.46c-0.929-0.967-1.396-2.188-1.396-3.662
			c0-1.482,0.467-2.711,1.396-3.684C130.089,12.575,131.236,12.094,132.598,12.094z M141.04,24.241h8.864v-2.049h-6.763v-4.017
			h6.297v-2.045h-6.297v-3.895h6.763v-2.051h-8.864V24.241z M154.406,10.186h-2.105v14.056h8.672v-2.049h-6.566V10.186z
			 M171.825,17.232c-0.79-0.644-1.927-1.057-3.405-1.244l-1.289-0.161c-0.856-0.114-1.504-0.31-1.938-0.572
			c-0.438-0.261-0.655-0.646-0.655-1.154c0-0.656,0.287-1.153,0.859-1.505c0.571-0.347,1.209-0.523,1.911-0.523h0.168
			c0.615,0,1.274,0.148,1.967,0.445c0.691,0.291,1.278,0.679,1.763,1.163l1.358-1.308c-0.648-0.705-1.417-1.273-2.316-1.696
			c-0.893-0.42-1.821-0.63-2.771-0.63h-0.168c-1.376,0.011-2.538,0.396-3.47,1.145c-0.94,0.748-1.406,1.738-1.406,2.966
			c0,2.09,1.475,3.317,4.429,3.679l1.282,0.162c0.91,0.121,1.599,0.338,2.064,0.66c0.474,0.322,0.703,0.814,0.703,1.486
			c0,0.669-0.284,1.202-0.845,1.593c-0.568,0.398-1.308,0.602-2.215,0.617h-0.098c-1.023,0-1.912-0.215-2.655-0.647
			c-0.754-0.429-1.293-0.953-1.632-1.584l-1.369,1.308c0.51,0.869,1.256,1.578,2.236,2.124c0.982,0.552,2.119,0.825,3.42,0.825
			h0.098c1.482-0.011,2.713-0.402,3.693-1.174c0.983-0.768,1.471-1.792,1.471-3.062C173.016,18.848,172.623,17.875,171.825,17.232z
			 M42.304,16.65l-1.85-0.265c-1.3-0.182-2.211-0.493-2.721-0.923c-0.499-0.428-0.743-1.014-0.743-1.782
			c0-0.974,0.372-1.726,1.137-2.313c0.772-0.584,1.689-0.876,2.738-0.876h0.252c0.925,0,1.773,0.191,2.509,0.568
			c0.739,0.376,1.322,0.921,1.733,1.619l0.08,0.13l0.408-0.393l-0.044-0.086c-0.444-0.777-1.085-1.385-1.919-1.792
			c-0.819-0.409-1.756-0.615-2.768-0.615h-0.252c-1.165,0-2.207,0.349-3.103,1.037c-0.903,0.696-1.362,1.614-1.362,2.721
			c0,0.929,0.313,1.672,0.939,2.202c0.612,0.52,1.65,0.89,3.078,1.09l1.871,0.26c1.217,0.172,2.109,0.516,2.641,1.024
			c0.535,0.501,0.809,1.245,0.809,2.208c0,1.039-0.422,1.884-1.249,2.513c-0.838,0.634-1.86,0.956-3.019,0.956h-0.103
			c-1.268,0-2.335-0.272-3.157-0.812c-0.819-0.536-1.398-1.3-1.716-2.273l-0.058-0.171l-0.427,0.369l0.025,0.081
			c0.332,1.053,0.969,1.89,1.901,2.484c0.925,0.591,2.08,0.891,3.431,0.891h0.103c1.303,0,2.454-0.377,3.401-1.118
			c0.965-0.748,1.453-1.729,1.453-2.919c0-1.127-0.332-2.008-0.983-2.621C44.697,17.24,43.674,16.84,42.304,16.65z M54.764,17.699
			l-5.831-7.776h-0.295v14.3h0.586V11.351l5.54,7.379l5.561-7.379v12.872h0.586v-14.3h-0.295L54.764,17.699z M69.232,9.923h-0.28
			l-5.806,14.3h0.627l1.988-4.9h6.661l1.988,4.9h0.626L69.258,10L69.232,9.923z M66.002,18.756l3.092-7.631l3.11,7.631H66.002z
			 M87.351,10.491h4.694v13.731h0.59V10.491h4.698V9.923h-9.982V10.491z M86.754,14.375c0-2.49-2.015-4.438-4.582-4.438
			l-4.898-0.015v14.3h0.576v-5.308h4.341c0.149,0,0.291,0,0.444-0.015l3.11,5.399h0.706l-3.19-5.507
			C85.326,18.326,86.754,16.529,86.754,14.375z M82.19,18.326H77.85v-7.782h4.322c2.283,0,4.01,1.646,4.01,3.831
			C86.182,16.589,84.43,18.326,82.19,18.326z"/>
	</g>
</g>
</svg>
