<?xml version="1.0" encoding="utf-8"?>
<!-- Generator: Adobe Illustrator 16.0.0, SVG Export Plug-In . SVG Version: 6.00 Build 0)  -->
<!DOCTYPE svg PUBLIC "-//W3C//DTD SVG 1.1//EN" "http://www.w3.org/Graphics/SVG/1.1/DTD/svg11.dtd">
<svg version="1.1" id="Layer_1" xmlns="http://www.w3.org/2000/svg" xmlns:xlink="http://www.w3.org/1999/xlink" x="0px" y="0px"
	 width="512px" height="512px" viewBox="0 0 512 512" enable-background="new 0 0 512 512" xml:space="preserve">
<path id="smiley-happy-icon" fill="#FFFFFF" d="M409.192,292.035c-41.643,32.901-87.396,53.163-151.657,53.163
	s-110.015-20.262-151.657-53.163L92.32,305.594c31.038,47.361,88.102,98.211,165.215,98.211s134.178-50.85,165.216-98.211
	L409.192,292.035z M425.395,196.107c-5.202,3.605-22.466,15.094-22.466,15.094s-14.985-28.26-52.002-28.26
	c-35.984,0-51.999,28.26-51.999,28.26s-17.265-11.489-22.467-15.094c8.404-22.276,35.909-59.648,74.466-59.648
	C389.485,136.459,416.988,173.83,425.395,196.107z M242.184,196.107c-5.202,3.605-22.468,15.094-22.468,15.094
	s-14.983-28.26-51.999-28.26c-35.984,0-52,28.26-52,28.26s-17.265-11.489-22.467-15.094c8.405-22.276,35.909-59.648,74.467-59.648
	C206.275,136.459,233.778,173.83,242.184,196.107z"/>
</svg>
