<?xml version="1.0" encoding="utf-8"?>
<!-- Generator: Adobe Illustrator 16.0.0, SVG Export Plug-In . SVG Version: 6.00 Build 0)  -->
<!DOCTYPE svg PUBLIC "-//W3C//DTD SVG 1.1//EN" "http://www.w3.org/Graphics/SVG/1.1/DTD/svg11.dtd">
<svg version="1.1" id="Layer_1" xmlns="http://www.w3.org/2000/svg" xmlns:xlink="http://www.w3.org/1999/xlink" x="0px" y="0px"
	 width="168.863px" height="19.646px" viewBox="0 0 168.863 19.646" enable-background="new 0 0 168.863 19.646"
	 xml:space="preserve">
<g>
	<g>
		<path fill="#010101" d="M1.976,14.246H0v-2.685h2.318l0.368-2.844H0.765V6.031h2.265l0.658-5.082h2.264L5.294,6.031h2.264
			l0.659-5.082h2.265L9.824,6.031h1.975v2.686H9.481l-0.368,2.844h1.921v2.686H8.77l-0.657,5.082H5.848l0.658-5.082H4.242
			l-0.659,5.082H1.318L1.976,14.246z M4.582,11.561h2.266l0.368-2.844H4.952L4.582,11.561z"/>
		<path fill="#010101" d="M16.38,12.745L11.403,0.316h4.345l2.843,8.031l3.029-8.031h4.057l-5.319,12.429v6.584H16.38V12.745z"/>
		<path fill="#010101" d="M26.993,19.328V0.316h10.375v2.923H30.97v4.688h5.899v2.924H30.97v5.557h6.609v2.922L26.993,19.328
			L26.993,19.328z"/>
		<path fill="#010101" d="M44.795,19.646c-4.924,0-5.847-2.896-5.635-6.188h3.976c0,1.816,0.079,3.343,2.267,3.343
			c1.342,0,2.001-0.868,2.001-2.158c0-3.423-8.007-3.635-8.007-9.296C39.396,2.371,40.818,0,45.664,0
			c3.871,0,5.793,1.739,5.529,5.714h-3.87c0-1.422-0.237-2.869-1.843-2.869c-1.29,0-2.055,0.711-2.055,2.027
			c0,3.607,8.007,3.292,8.007,9.27C51.431,19.064,47.824,19.646,44.795,19.646z"/>
		<path fill="#010101" d="M52.063,0.316h4.082l2.476,13.351h0.053l3.001-13.351h4.688l2.845,13.351h0.053l2.37-13.351h3.896
			l-4.213,19.012h-4.397L63.94,5.425h-0.052l-3.291,13.903h-4.319L52.063,0.316z"/>
		<path fill="#010101" d="M76.633,19.328V0.316H87.01v2.923H80.61v4.688h5.899v2.924H80.61v5.557h6.609v2.922L76.633,19.328
			L76.633,19.328z"/>
		<path fill="#010101" d="M89.091,9.824c0-5.03,0-9.824,6.556-9.824c4.056,0,5.688,2.238,5.529,6.321H97.28
			c0-2.529-0.449-3.477-1.634-3.477c-2.237,0-2.527,2.106-2.527,6.979c0,4.872,0.29,6.977,2.527,6.977
			c1.844,0,1.766-2.368,1.816-3.87h3.924c0,5.082-2.026,6.715-5.74,6.715C89.091,19.646,89.091,14.801,89.091,9.824z"/>
		<path fill="#010101" d="M107.288,19.328h-3.977V0.316h7.348c2.712,0,4.449,1.737,4.449,4.977c0,2.424-0.948,4.241-3.528,4.661
			v0.053c0.869,0.104,3.449,0.316,3.449,3.74c0,1.212,0.08,4.793,0.45,5.582h-3.897c-0.528-1.159-0.423-2.449-0.423-3.687
			c0-2.264,0.21-4.186-2.843-4.186h-1.027L107.288,19.328L107.288,19.328z M107.288,8.531h1.763c1.582,0,2.029-1.579,2.029-2.791
			c0-1.815-0.765-2.501-2.029-2.501h-1.763V8.531z"/>
		<path fill="#010101" d="M117.321,9.824c0-5.03,0-9.824,6.558-9.824c6.557,0,6.557,4.794,6.557,9.824c0,4.977,0,9.821-6.557,9.821
			C117.321,19.646,117.321,14.801,117.321,9.824z M126.406,9.824c0-4.873-0.289-6.979-2.527-6.979c-2.239,0-2.528,2.106-2.528,6.979
			c0,4.872,0.289,6.977,2.528,6.977C126.117,16.801,126.406,14.694,126.406,9.824z"/>
		<path fill="#010101" d="M131.385,0.316h4.08l2.476,13.351h0.053l3.003-13.351h4.688l2.844,13.351h0.053l2.369-13.351h3.898
			l-4.215,19.012h-4.397L143.26,5.425h-0.052l-3.292,13.903h-4.32L131.385,0.316z"/>
		<path fill="#010101" d="M156.032,0.316h6.637c5.214,0,6.188,3.476,6.188,9.401c0,2.922,0.447,9.61-6.347,9.61h-6.479V0.316z
			 M160.009,16.406h1.923c2.421,0,2.896-1.817,2.896-6.585c0-3.501,0-6.582-2.764-6.582h-2.055V16.406L160.009,16.406z"/>
	</g>
</g>
</svg>
