<?xml version="1.0" encoding="utf-8"?>
<!-- Generator: Adobe Illustrator 16.0.0, SVG Export Plug-In . SVG Version: 6.00 Build 0)  -->
<!DOCTYPE svg PUBLIC "-//W3C//DTD SVG 1.1//EN" "http://www.w3.org/Graphics/SVG/1.1/DTD/svg11.dtd">
<svg version="1.1" id="Layer_1" xmlns="http://www.w3.org/2000/svg" xmlns:xlink="http://www.w3.org/1999/xlink" x="0px" y="0px"
	 width="503.53px" height="21.98px" viewBox="0 0 503.53 21.98" enable-background="new 0 0 503.53 21.98" xml:space="preserve">
<g>
	<path d="M15.096,3.774c0.042-0.374,0.083-0.643,0.083-0.809c0-0.912-0.581-1.099-1.949-1.161l0.145-1.182h5.993l-0.125,1.182
		c-1.555,0.062-2.157,0.311-2.302,1.618l-1.638,13.375H14.06L5.392,4.479l-1.099,9.083c-0.062,0.477-0.104,0.767-0.104,0.953
		c0,0.871,0.581,1.037,1.95,1.1l-0.146,1.182H0l0.125-1.182c1.555-0.062,2.156-0.312,2.302-1.617L3.753,3.152
		C3.09,2.219,2.799,1.825,1.825,1.804L1.97,0.622h4.832l7.382,10.597L15.096,3.774z"/>
	<path d="M21.277,3.774c0.042-0.374,0.062-0.643,0.062-0.809c0-0.912-0.56-1.099-1.929-1.161l0.145-1.182h7.507l-0.125,1.182
		c-1.555,0.062-2.157,0.311-2.302,1.618l-0.83,6.822c-0.083,0.58-0.125,0.995-0.125,1.493c0,2.095,1.162,3.421,3.401,3.421
		c2.8,0,4.21-1.326,4.604-4.52l0.83-6.864c0.042-0.374,0.083-0.643,0.083-0.809c0-0.912-0.581-1.099-1.929-1.161l0.125-1.182h6.014
		l-0.145,1.182c-1.555,0.062-2.136,0.311-2.302,1.618l-0.933,7.714c-0.498,3.919-3.235,5.868-6.885,5.868
		c-3.898,0-6.2-1.866-6.2-5.039c0-0.456,0.042-0.891,0.145-1.783L21.277,3.774z"/>
	<path d="M51.076,1.991c0.27-0.56,0.415-0.85,0.519-1.369h5.537l-0.145,1.182c-1.556,0.062-2.032,0.456-2.178,1.68l0.166,10.742
		c0.021,1.058,0.477,1.327,1.804,1.39l-0.145,1.182h-7.59l0.145-1.182c1.493-0.084,2.447-0.291,2.447-2.033l-0.146-8.937
		l-6.159,12.152h-1.348L40.915,4.645l-2.322,8.875c-0.083,0.353-0.145,0.705-0.145,0.975c0,0.851,0.56,1.036,2.073,1.12
		l-0.145,1.182h-5.951l0.145-1.182c1.327-0.062,1.846-0.312,2.136-1.39l2.841-10.742c0-1.224-0.228-1.618-1.763-1.68l0.146-1.182
		h5.516c0,0.519,0.083,0.871,0.229,1.41l2.467,9.829L51.076,1.991z"/>
	<path d="M67.563,11.737h-6.304l-1.016,1.907c-0.249,0.457-0.394,0.768-0.394,1.162c0,0.539,0.332,0.746,1.783,0.809l-0.145,1.182
		H56.22l0.145-1.182c0.643-0.104,1.182-0.229,1.514-0.851l6.76-12.587l-0.498-1.639h3.546l4.23,14.226
		c0.187,0.644,0.622,0.747,1.286,0.851l-0.145,1.182h-6.947l0.124-1.182c1.597-0.042,2.032-0.291,2.032-1.1
		c0-0.27-0.062-0.539-0.166-0.892L67.563,11.737z M61.985,10.369h5.185l-1.804-6.388L61.985,10.369z"/>
	<path d="M80.359,12.422c0-3.754,2.468-7.03,6.304-7.03c2.965,0,4.521,1.949,4.521,4.583c0,3.773-2.489,7.029-6.304,7.029
		C81.914,17.004,80.359,15.055,80.359,12.422z M88.011,9.29c0-1.742-0.353-2.758-1.452-2.758c-1.929,0-3.027,3.898-3.027,6.532
		c0,1.783,0.332,2.799,1.431,2.799C86.912,15.863,88.011,11.965,88.011,9.29z"/>
	<path d="M101.075,9h-0.083c-2.012,5.08-4.002,8.004-6.346,8.004c-1.431,0-1.991-0.829-1.991-2.156c0-1.887,1.452-5.619,1.452-7.113
		c0-0.332-0.104-0.498-0.415-0.498c-0.477,0-0.913,0.498-1.535,1.182l-0.726-0.622c1.245-1.721,2.551-2.406,4.002-2.406
		c1.369,0,1.825,0.685,1.825,1.783c0,1.701-1.431,5.392-1.431,6.968c0,0.395,0.083,0.622,0.394,0.622
		c1.265,0,3.463-4.542,5.122-9.166h3.069c-0.519,2.779-1.576,8.004-1.576,9.083c0,0.395,0.125,0.561,0.415,0.561
		c0.435,0,0.871-0.374,1.514-1.1l0.747,0.643c-1.224,1.493-2.343,2.219-3.878,2.219c-1.327,0-1.929-0.726-1.929-1.907
		C99.706,13.832,100.453,11.385,101.075,9z"/>
	<path d="M112.75,6.864V6.18c0.394-0.477,1.058-0.788,1.763-0.788c1.535,0,2.157,1.12,2.157,2.364c0,2.944-3.608,6.512-6.926,9.186
		h-0.954c-0.415-3.67-0.871-6.884-1.245-8.335c-0.166-0.705-0.249-1.307-0.705-1.307c-0.457,0-0.83,0.457-1.327,1.079l-0.726-0.622
		c1.037-1.597,2.26-2.364,3.587-2.364c1.369,0,1.763,0.788,2.095,2.074c0.394,1.576,0.726,4.603,0.788,6.74
		c1.887-1.887,3.111-3.381,3.111-5.309C114.368,7.818,113.87,7.03,112.75,6.864z"/>
	<path d="M121.336,13.459c0.933-2.447,2.364-5.807,3.359-6.968c0.601-0.684,1.182-1.099,2.073-1.099c1.016,0,1.618,0.643,1.618,1.68
		c0,0.913-0.415,1.514-0.954,1.97h-1.037c-0.062-0.54-0.332-0.788-0.788-0.788c-1.203,0-2.696,2.862-4.583,8.543h-3.028l1.472-8.295
		c0.042-0.249,0.083-0.622,0.083-0.767c0-0.332-0.104-0.498-0.415-0.498c-0.477,0-0.933,0.498-1.535,1.182l-0.747-0.622
		c1.265-1.721,2.551-2.406,4.023-2.406c1.348,0,1.784,0.685,1.784,1.783c0,0.374-0.083,0.954-0.27,1.68l-1.141,4.604H121.336z"/>
	<path d="M137.262,13.666c-1.12,2.136-2.903,3.338-5.329,3.338c-2.841,0-4.272-1.7-4.272-4.375c0-3.463,2.633-7.237,6.594-7.237
		c2.074,0,3.256,0.892,3.256,2.53c0,2.758-3.546,3.711-6.74,4.355v0.249c0,1.721,0.664,2.695,2.032,2.695
		c1.472,0,2.634-0.809,3.608-2.115L137.262,13.666z M130.834,11.239c2.696-0.767,4.002-1.804,4.002-3.504
		c0-0.684-0.29-1.099-0.975-1.099C132.306,6.636,131.083,8.854,130.834,11.239z"/>
	<path d="M146.449,14.723c0-1.721-4.313-2.82-4.313-5.909c0-1.929,1.659-3.422,4.188-3.422c1.866,0,3.152,0.705,3.152,1.97
		c0,0.518-0.27,0.892-0.747,1.14h-1.182c-0.291-1.14-0.996-1.783-1.991-1.783c-0.705,0-1.141,0.311-1.141,0.892
		c0,1.68,4.521,3.028,4.521,5.931c0,1.949-1.742,3.463-4.396,3.463c-2.177,0-3.753-0.912-3.753-2.26c0-0.643,0.374-1.1,0.933-1.348
		h1.037c0.29,1.638,1.203,2.363,2.343,2.363C145.931,15.76,146.449,15.366,146.449,14.723z"/>
	<path d="M150.1,12.422c0-3.754,2.468-7.03,6.304-7.03c2.965,0,4.521,1.949,4.521,4.583c0,3.773-2.489,7.029-6.304,7.029
		C151.655,17.004,150.1,15.055,150.1,12.422z M157.751,9.29c0-1.742-0.353-2.758-1.452-2.758c-1.928,0-3.027,3.898-3.027,6.532
		c0,1.783,0.332,2.799,1.431,2.799C156.652,15.863,157.751,11.965,157.751,9.29z"/>
	<path d="M170.982,8.087c0-0.249-0.042-0.539-0.373-0.539c-1.12,0-3.629,4.231-5.247,9.249h-3.048l1.473-8.295
		c0.041-0.249,0.083-0.622,0.083-0.767c0-0.332-0.104-0.498-0.415-0.498c-0.477,0-0.933,0.498-1.535,1.182l-0.747-0.622
		c1.265-1.721,2.551-2.406,4.023-2.406c1.348,0,1.784,0.685,1.784,1.783c0,0.374-0.083,0.954-0.27,1.68l-1.141,4.5h0.083
		c2.094-5.018,4.043-7.963,6.615-7.963c1.307,0,1.929,0.788,1.929,2.074c0,1.804-1.493,5.994-1.493,7.216
		c0,0.395,0.145,0.561,0.415,0.561c0.457,0,0.851-0.374,1.514-1.1l0.726,0.643c-1.203,1.493-2.343,2.219-3.857,2.219
		c-1.327,0-1.949-0.726-1.949-1.907C169.551,13.541,170.982,9.602,170.982,8.087z"/>
	<path d="M182.16,12.256c0,1.824,0.498,2.965,1.908,2.965c1.079,0,2.157-0.787,3.048-1.866l0.83,0.602
		c-0.954,1.7-2.613,3.048-4.77,3.048c-2.633,0-4.085-1.742-4.085-4.292c0-3.857,2.841-7.32,6.656-7.32
		c1.721,0,2.82,0.747,2.82,2.012c0,0.684-0.415,1.223-0.912,1.472h-1.369c-0.042-1.389-0.27-2.24-1.162-2.24
		C183.217,6.636,182.16,9.934,182.16,12.256z"/>
	<path d="M196.717,11.344h-0.083c-0.332,0.809-0.664,1.575-1.431,2.799c-1.161,1.866-2.426,2.861-3.898,2.861
		c-1.7,0-2.654-1.368-2.654-3.483c0-4.313,3.152-8.129,7.196-8.129c1.182,0,2.053,0.374,2.696,1.079l1.327-1.224h1.14l-0.747,2.364
		c-0.643,2.612-1.244,5.91-1.244,7.071c0,0.395,0.125,0.561,0.415,0.561c0.436,0,0.85-0.374,1.514-1.1l0.726,0.643
		c-1.203,1.493-2.343,2.219-3.857,2.219c-1.306,0-1.866-0.726-1.866-1.907C195.95,14.184,196.386,12.566,196.717,11.344z
		 M195.204,12.38c1.037-1.7,1.887-4.023,2.053-5.246c-0.27-0.332-0.705-0.54-1.348-0.54c-2.488,0-4.251,3.65-4.251,6.533
		c0,1.099,0.249,1.824,0.975,1.824C193.462,14.951,194.229,14.06,195.204,12.38z"/>
	<path d="M205.738,16.424c-0.208,1.037-0.539,2.778-0.539,3.214c0,0.851,0.332,0.933,1.265,1.058l-0.187,1.078h-5.972l0.187-1.078
		c0.975-0.125,1.472-0.229,1.638-1.182l2.053-11.012c0.042-0.29,0.083-0.622,0.083-0.767c0-0.332-0.104-0.498-0.436-0.498
		c-0.477,0-0.913,0.498-1.535,1.182l-0.726-0.622c1.244-1.721,2.551-2.406,4.002-2.406c1.369,0,1.804,0.685,1.804,1.783
		c0,0.374-0.083,0.954-0.29,1.68l-0.664,2.509h0.083c1.887-3.877,3.836-5.972,6.117-5.972c1.783,0,2.613,1.452,2.613,3.256
		c0,4.479-3.442,8.356-7.424,8.356C206.962,17.004,206.174,16.756,205.738,16.424z M211.959,9.021c0-1.078-0.187-1.638-0.871-1.638
		c-1.7,0-4.749,5.475-5.081,7.631c0.291,0.602,0.892,0.85,1.721,0.85C210.238,15.863,211.959,11.717,211.959,9.021z"/>
	<path d="M219.964,14.682c0,0.395,0.145,0.561,0.415,0.561c0.456,0,0.85-0.374,1.514-1.1l0.726,0.643
		c-1.203,1.493-2.323,2.219-3.857,2.219c-1.327,0-1.949-0.726-1.949-1.907c0-1.534,1.39-5.849,1.39-7.362
		c0-0.332-0.104-0.498-0.436-0.498c-0.477,0-0.913,0.498-1.535,1.182l-0.726-0.622c1.244-1.721,2.551-2.406,4.002-2.406
		c1.369,0,1.825,0.685,1.825,1.783C221.333,8.875,219.964,13.375,219.964,14.682z M218.554,2.302c0-1.099,0.788-1.97,2.032-1.97
		c1.12,0,1.825,0.747,1.825,1.721c0,1.099-0.809,1.97-2.032,1.97C219.238,4.023,218.554,3.297,218.554,2.302z"/>
	<path d="M227.16,13.334c-0.125,0.622-0.145,0.934-0.145,1.203c0,0.352,0.187,0.58,0.56,0.58c0.726,0,1.618-0.622,2.634-1.846
		l0.747,0.727c-1.431,2.011-3.069,3.006-4.791,3.006c-1.472,0-2.219-0.705-2.219-2.053c0-0.395,0.042-0.912,0.187-1.7l1.141-6.304
		h-1.514l0.166-0.995c1.597-0.622,2.986-1.721,4.043-2.841h1.058l-0.415,2.488h2.861l-0.228,1.348h-2.882L227.16,13.334z"/>
	<path d="M239.686,11.344h-0.083c-0.332,0.809-0.664,1.575-1.431,2.799c-1.161,1.866-2.426,2.861-3.898,2.861
		c-1.701,0-2.654-1.368-2.654-3.483c0-4.313,3.152-8.129,7.196-8.129c1.182,0,2.053,0.374,2.696,1.079l1.327-1.224h1.14
		l-0.747,2.364c-0.643,2.612-1.244,5.91-1.244,7.071c0,0.395,0.125,0.561,0.415,0.561c0.436,0,0.85-0.374,1.514-1.1l0.726,0.643
		c-1.203,1.493-2.343,2.219-3.857,2.219c-1.306,0-1.866-0.726-1.866-1.907C238.918,14.184,239.354,12.566,239.686,11.344z
		 M238.172,12.38c1.037-1.7,1.887-4.023,2.053-5.246c-0.27-0.332-0.705-0.54-1.348-0.54c-2.488,0-4.251,3.65-4.251,6.533
		c0,1.099,0.249,1.824,0.975,1.824C236.43,14.951,237.197,14.06,238.172,12.38z"/>
	<path d="M247.442,2.489l-1.41-0.934l0.145-0.643L250.013,0h0.85c-0.56,4.791-2.551,12.566-2.551,14.682
		c0,0.395,0.125,0.561,0.415,0.561c0.435,0,0.85-0.374,1.514-1.1l0.726,0.643c-1.203,1.493-2.26,2.219-3.774,2.219
		c-1.327,0-1.991-0.726-1.991-1.907C245.202,13.105,247.048,5.703,247.442,2.489z"/>
	<path d="M264.217,13.666c-1.119,2.136-2.903,3.338-5.329,3.338c-2.841,0-4.271-1.7-4.271-4.375c0-3.463,2.633-7.237,6.594-7.237
		c2.074,0,3.255,0.892,3.255,2.53c0,2.758-3.546,3.711-6.739,4.355v0.249c0,1.721,0.664,2.695,2.032,2.695
		c1.472,0,2.634-0.809,3.608-2.115L264.217,13.666z M257.79,11.239c2.696-0.767,4.002-1.804,4.002-3.504
		c0-0.684-0.29-1.099-0.975-1.099C259.262,6.636,258.038,8.854,257.79,11.239z"/>
	<path d="M274.338,8.087c0-0.249-0.041-0.539-0.373-0.539c-1.12,0-3.629,4.231-5.246,9.249h-3.049l1.473-8.295
		c0.041-0.249,0.083-0.622,0.083-0.767c0-0.332-0.104-0.498-0.415-0.498c-0.477,0-0.934,0.498-1.534,1.182l-0.747-0.622
		c1.266-1.721,2.551-2.406,4.023-2.406c1.348,0,1.783,0.685,1.783,1.783c0,0.374-0.083,0.954-0.27,1.68l-1.141,4.5h0.083
		c2.095-5.018,4.044-7.963,6.615-7.963c1.306,0,1.928,0.788,1.928,2.074c0,1.804-1.492,5.994-1.492,7.216
		c0,0.395,0.145,0.561,0.414,0.561c0.456,0,0.851-0.374,1.514-1.1l0.727,0.643c-1.203,1.493-2.344,2.219-3.857,2.219
		c-1.327,0-1.949-0.726-1.949-1.907C272.908,13.541,274.338,9.602,274.338,8.087z"/>
	<path d="M292.047,13.666c-1.119,2.136-2.902,3.338-5.329,3.338c-2.841,0-4.271-1.7-4.271-4.375c0-3.463,2.634-7.237,6.595-7.237
		c2.073,0,3.255,0.892,3.255,2.53c0,2.758-3.546,3.711-6.739,4.355v0.249c0,1.721,0.664,2.695,2.032,2.695
		c1.473,0,2.634-0.809,3.608-2.115L292.047,13.666z M285.62,11.239c2.695-0.767,4.002-1.804,4.002-3.504
		c0-0.684-0.29-1.099-0.975-1.099C287.091,6.636,285.869,8.854,285.62,11.239z"/>
	<path d="M292.691,13.521c0-4.313,3.152-8.129,7.175-8.129c1.286,0,2.178,0.415,2.8,1.079l1.348-1.224h1.141l-0.747,2.364
		c-0.622,2.654-2.197,10.783-2.197,11.944c0,0.934,0.331,1.016,1.265,1.141l-0.187,1.078h-5.993l0.187-1.078
		c0.975-0.125,1.493-0.229,1.639-1.182c0.87-4.957,1.161-6.035,1.783-8.17h-0.083c-0.332,0.809-0.664,1.575-1.431,2.799
		c-1.161,1.866-2.427,2.861-3.94,2.861C293.728,17.004,292.691,15.636,292.691,13.521z M299.389,12.38
		c1.036-1.7,1.824-3.94,2.011-5.164c-0.207-0.373-0.684-0.622-1.41-0.622c-2.529,0-4.292,3.525-4.292,6.533
		c0,1.099,0.27,1.824,0.995,1.824C297.543,14.951,298.415,14.06,299.389,12.38z"/>
	<path d="M314.631,9h-0.083c-2.011,5.08-4.002,8.004-6.345,8.004c-1.432,0-1.991-0.829-1.991-2.156c0-1.887,1.451-5.619,1.451-7.113
		c0-0.332-0.104-0.498-0.414-0.498c-0.478,0-0.913,0.498-1.535,1.182l-0.726-0.622c1.244-1.721,2.551-2.406,4.002-2.406
		c1.369,0,1.825,0.685,1.825,1.783c0,1.701-1.431,5.392-1.431,6.968c0,0.395,0.083,0.622,0.394,0.622
		c1.266,0,3.464-4.542,5.122-9.166h3.069c-0.519,2.779-1.576,8.004-1.576,9.083c0,0.395,0.125,0.561,0.415,0.561
		c0.436,0,0.871-0.374,1.514-1.1l0.746,0.643c-1.223,1.493-2.343,2.219-3.877,2.219c-1.327,0-1.929-0.726-1.929-1.907
		C313.263,13.832,314.009,11.385,314.631,9z"/>
	<path d="M323.486,14.682c0,0.395,0.145,0.561,0.415,0.561c0.456,0,0.85-0.374,1.514-1.1l0.726,0.643
		c-1.203,1.493-2.322,2.219-3.857,2.219c-1.327,0-1.949-0.726-1.949-1.907c0-1.534,1.39-5.849,1.39-7.362
		c0-0.332-0.104-0.498-0.436-0.498c-0.477,0-0.912,0.498-1.534,1.182l-0.727-0.622c1.245-1.721,2.551-2.406,4.003-2.406
		c1.368,0,1.824,0.685,1.824,1.783C324.854,8.875,323.486,13.375,323.486,14.682z M322.076,2.302c0-1.099,0.788-1.97,2.032-1.97
		c1.12,0,1.824,0.747,1.824,1.721c0,1.099-0.809,1.97-2.031,1.97C322.76,4.023,322.076,3.297,322.076,2.302z"/>
	<path d="M330.681,13.334c-0.124,0.622-0.145,0.934-0.145,1.203c0,0.352,0.187,0.58,0.56,0.58c0.726,0,1.617-0.622,2.634-1.846
		l0.746,0.727c-1.431,2.011-3.068,3.006-4.79,3.006c-1.472,0-2.219-0.705-2.219-2.053c0-0.395,0.042-0.912,0.187-1.7l1.141-6.304
		h-1.514l0.166-0.995c1.597-0.622,2.986-1.721,4.044-2.841h1.058l-0.415,2.488h2.861l-0.228,1.348h-2.883L330.681,13.334z"/>
	<path d="M342.004,15.822c1.535-2.613,2.302-4.583,2.302-6.594c0-1.224-0.56-2.219-1.804-2.344V6.18
		c0.415-0.477,1.016-0.788,1.783-0.788c1.514,0,2.219,1.037,2.219,2.509c0,2.218-1.493,5.454-3.629,8.667
		c-2.799,4.21-4.956,5.412-7.507,5.412c-1.431,0-2.716-0.643-2.716-2.073c0-0.685,0.414-1.306,0.933-1.534h1.161
		c0.062,1.285,0.498,2.115,1.639,2.115c1.368,0,2.322-0.788,3.442-1.971c-0.539-3.587-1.825-8.148-2.385-9.787
		c-0.312-0.892-0.478-1.41-0.934-1.41s-0.892,0.436-1.368,1.078l-0.726-0.643c1.058-1.597,2.28-2.364,3.607-2.364
		c1.369,0,1.949,0.913,2.364,2.302C341.279,10.597,341.777,13.396,342.004,15.822z"/>
	<path d="M347.458,10.97l0.249-2.074h5.89l-0.249,2.074H347.458z"/>
	<path d="M358.014,12.256c0,1.824,0.497,2.965,1.907,2.965c1.078,0,2.157-0.787,3.049-1.866l0.829,0.602
		c-0.954,1.7-2.612,3.048-4.77,3.048c-2.634,0-4.085-1.742-4.085-4.292c0-3.857,2.841-7.32,6.656-7.32
		c1.722,0,2.82,0.747,2.82,2.012c0,0.684-0.415,1.223-0.912,1.472h-1.369c-0.041-1.389-0.27-2.24-1.161-2.24
		C359.072,6.636,358.014,9.934,358.014,12.256z"/>
	<path d="M368.735,13.459c0.934-2.447,2.364-5.807,3.359-6.968c0.602-0.684,1.183-1.099,2.074-1.099c1.016,0,1.617,0.643,1.617,1.68
		c0,0.913-0.415,1.514-0.954,1.97h-1.036c-0.062-0.54-0.332-0.788-0.788-0.788c-1.203,0-2.696,2.862-4.583,8.543h-3.027l1.472-8.295
		c0.042-0.249,0.083-0.622,0.083-0.767c0-0.332-0.104-0.498-0.415-0.498c-0.477,0-0.933,0.498-1.534,1.182l-0.746-0.622
		c1.265-1.721,2.551-2.406,4.022-2.406c1.348,0,1.783,0.685,1.783,1.783c0,0.374-0.083,0.954-0.27,1.68l-1.141,4.604H368.735z"/>
	<path d="M375.06,12.422c0-3.754,2.468-7.03,6.304-7.03c2.966,0,4.521,1.949,4.521,4.583c0,3.773-2.488,7.029-6.304,7.029
		C376.616,17.004,375.06,15.055,375.06,12.422z M382.711,9.29c0-1.742-0.353-2.758-1.451-2.758c-1.929,0-3.027,3.898-3.027,6.532
		c0,1.783,0.332,2.799,1.431,2.799C381.613,15.863,382.711,11.965,382.711,9.29z"/>
	<path d="M399.738,6.864V6.18c0.394-0.477,1.058-0.788,1.763-0.788c1.534,0,2.156,1.12,2.156,2.364c0,2.944-3.421,6.512-6.76,9.186
		h-0.954c-0.166-2.031-0.415-4.582-0.685-6.033h-0.083c-0.456,1.182-1.7,3.566-4.582,6.033h-0.954
		c-0.415-3.67-0.851-6.884-1.203-8.335c-0.166-0.705-0.249-1.307-0.705-1.307s-0.829,0.457-1.327,1.079l-0.726-0.622
		c1.037-1.597,2.302-2.364,3.629-2.364c1.369,0,1.783,0.788,2.095,2.074c0.373,1.576,0.622,4.542,0.663,6.636
		c1.307-1.598,2.675-4.023,2.675-5.62c0-0.892-0.373-1.846-0.912-2.613c0.436-0.27,1.161-0.477,1.825-0.477
		c1.224,0,1.597,0.622,1.949,2.074c0.373,1.472,0.726,4.666,0.768,6.74c1.887-1.867,2.985-3.484,2.985-5.309
		C401.355,7.818,400.858,7.03,399.738,6.864z"/>
	<path d="M412.119,1.555l0.124-0.643L416.141,0h0.851c-0.56,2.841-2.654,13.312-2.654,14.682c0,0.395,0.124,0.561,0.415,0.561
		c0.436,0,0.85-0.374,1.514-1.1l0.726,0.643c-1.203,1.493-2.343,2.219-3.878,2.219c-1.285,0-1.866-0.726-1.866-1.907
		c0-0.913,0.436-2.53,0.768-3.753h-0.083c-0.332,0.809-0.664,1.575-1.431,2.799c-1.161,1.866-2.427,2.861-3.94,2.861
		c-1.721,0-2.758-1.368-2.758-3.483c0-4.313,3.152-8.129,7.175-8.129c0.912,0,1.514,0.249,1.929,0.602
		c0.249-1.161,0.519-2.551,0.602-3.504L412.119,1.555z M410.501,12.38c1.036-1.7,1.824-3.94,2.011-5.164
		c-0.207-0.373-0.684-0.622-1.41-0.622c-2.529,0-4.292,3.525-4.292,6.533c0,1.099,0.27,1.824,0.995,1.824
		C408.656,14.951,409.527,14.06,410.501,12.38z"/>
	<path d="M421.346,14.287c-0.892,5.371-2.55,7.693-5.868,7.693c-1.949,0-3.09-0.767-3.09-2.011c0-0.685,0.373-1.265,0.892-1.493
		h1.348c0.188,1.451,0.519,2.405,1.327,2.405c1.037,0,1.576-0.933,1.888-3.297l1.493-10.638h-1.576l0.228-1.348h1.597l0.104-0.602
		C420.31,1.97,421.99,0,425.349,0c1.763,0,2.965,0.685,2.965,1.949c0,0.664-0.373,1.203-0.912,1.452h-1.493
		c-0.083-1.389-0.332-2.281-1.286-2.281c-0.746,0-1.202,0.539-1.431,1.887l-0.456,2.592h2.966l-0.208,1.348h-2.944L421.346,14.287z"
		/>
	<path d="M434.307,9h-0.083c-2.011,5.08-4.002,8.004-6.345,8.004c-1.432,0-1.991-0.829-1.991-2.156c0-1.887,1.451-5.619,1.451-7.113
		c0-0.332-0.104-0.498-0.414-0.498c-0.478,0-0.913,0.498-1.535,1.182l-0.726-0.622c1.244-1.721,2.551-2.406,4.002-2.406
		c1.369,0,1.825,0.685,1.825,1.783c0,1.701-1.431,5.392-1.431,6.968c0,0.395,0.083,0.622,0.394,0.622
		c1.266,0,3.464-4.542,5.122-9.166h3.069c-0.519,2.779-1.576,8.004-1.576,9.083c0,0.395,0.125,0.561,0.415,0.561
		c0.436,0,0.871-0.374,1.514-1.1l0.746,0.643c-1.223,1.493-2.343,2.219-3.877,2.219c-1.327,0-1.929-0.726-1.929-1.907
		C432.939,13.832,433.685,11.385,434.307,9z"/>
	<path d="M448.492,8.087c0-0.249-0.041-0.539-0.373-0.539c-1.12,0-3.629,4.231-5.246,9.249h-3.049l1.473-8.295
		c0.041-0.249,0.083-0.622,0.083-0.767c0-0.332-0.104-0.498-0.415-0.498c-0.477,0-0.934,0.498-1.534,1.182l-0.747-0.622
		c1.266-1.721,2.551-2.406,4.023-2.406c1.348,0,1.783,0.685,1.783,1.783c0,0.374-0.083,0.954-0.27,1.68l-1.141,4.5h0.083
		c2.095-5.018,4.044-7.963,6.615-7.963c1.306,0,1.928,0.788,1.928,2.074c0,1.804-1.492,5.994-1.492,7.216
		c0,0.395,0.145,0.561,0.414,0.561c0.456,0,0.851-0.374,1.514-1.1l0.727,0.643c-1.203,1.493-2.344,2.219-3.857,2.219
		c-1.327,0-1.949-0.726-1.949-1.907C447.061,13.541,448.492,9.602,448.492,8.087z"/>
	<path d="M461.598,1.555l0.124-0.643L465.621,0h0.851c-0.56,2.841-2.654,13.312-2.654,14.682c0,0.395,0.124,0.561,0.415,0.561
		c0.436,0,0.85-0.374,1.514-1.1l0.726,0.643c-1.203,1.493-2.343,2.219-3.878,2.219c-1.285,0-1.866-0.726-1.866-1.907
		c0-0.913,0.436-2.53,0.768-3.753h-0.083c-0.332,0.809-0.664,1.575-1.431,2.799c-1.161,1.866-2.427,2.861-3.94,2.861
		c-1.721,0-2.758-1.368-2.758-3.483c0-4.313,3.152-8.129,7.175-8.129c0.912,0,1.514,0.249,1.929,0.602
		c0.249-1.161,0.519-2.551,0.602-3.504L461.598,1.555z M459.981,12.38c1.036-1.7,1.824-3.94,2.011-5.164
		c-0.207-0.373-0.684-0.622-1.41-0.622c-2.529,0-4.292,3.525-4.292,6.533c0,1.099,0.27,1.824,0.995,1.824
		C458.135,14.951,459.006,14.06,459.981,12.38z"/>
	<path d="M470.868,14.682c0,0.395,0.145,0.561,0.415,0.561c0.456,0,0.85-0.374,1.514-1.1l0.726,0.643
		c-1.203,1.493-2.322,2.219-3.857,2.219c-1.327,0-1.949-0.726-1.949-1.907c0-1.534,1.39-5.849,1.39-7.362
		c0-0.332-0.104-0.498-0.436-0.498c-0.477,0-0.912,0.498-1.534,1.182l-0.727-0.622c1.245-1.721,2.551-2.406,4.003-2.406
		c1.368,0,1.824,0.685,1.824,1.783C472.236,8.875,470.868,13.375,470.868,14.682z M469.458,2.302c0-1.099,0.788-1.97,2.032-1.97
		c1.12,0,1.825,0.747,1.825,1.721c0,1.099-0.81,1.97-2.032,1.97C470.142,4.023,469.458,3.297,469.458,2.302z"/>
	<path d="M483.517,8.087c0-0.249-0.041-0.539-0.373-0.539c-1.12,0-3.629,4.231-5.246,9.249h-3.049l1.473-8.295
		c0.041-0.249,0.083-0.622,0.083-0.767c0-0.332-0.104-0.498-0.415-0.498c-0.477,0-0.934,0.498-1.534,1.182l-0.747-0.622
		c1.266-1.721,2.551-2.406,4.023-2.406c1.348,0,1.783,0.685,1.783,1.783c0,0.374-0.083,0.954-0.27,1.68l-1.141,4.5h0.083
		c2.095-5.018,4.044-7.963,6.615-7.963c1.306,0,1.928,0.788,1.928,2.074c0,1.804-1.492,5.994-1.492,7.216
		c0,0.395,0.145,0.561,0.414,0.561c0.456,0,0.851-0.374,1.514-1.1l0.727,0.643c-1.203,1.493-2.344,2.219-3.857,2.219
		c-1.327,0-1.949-0.726-1.949-1.907C482.086,13.541,483.517,9.602,483.517,8.087z"/>
	<path d="M491.356,13.188c-0.373,0.166-0.56,0.456-0.56,0.747c0,0.394,0.27,0.602,0.768,0.684l3.4,0.581
		c2.136,0.331,3.09,1.348,3.09,2.966c0,2.177-1.825,3.814-6.097,3.814c-3.4,0-5.453-1.202-5.453-2.861
		c0-1.389,1.244-2.094,3.007-2.26c-0.705-0.373-0.975-1.017-0.975-1.659c0-1.058,0.663-1.907,2.094-2.302
		c-1.099-0.561-1.763-1.597-1.763-2.799c0-2.759,2.323-4.708,5.371-4.708c1.327,0,2.447,0.415,3.193,1.058
		c0.622-0.747,1.348-1.182,2.136-1.182s1.431,0.498,1.431,1.286c0,0.664-0.353,1.224-0.85,1.348h-0.726
		c0-0.56-0.125-0.975-0.747-0.975c-0.332,0-0.602,0.021-0.809,0.083c0.332,0.477,0.519,1.058,0.519,1.659
		c0,2.82-2.364,4.749-5.392,4.749C492.414,13.417,491.833,13.334,491.356,13.188z M490.112,17.191
		c-0.933,0.394-1.306,0.912-1.306,1.721c0,1.327,1.431,1.99,3.4,1.99c2.115,0,3.214-0.602,3.214-1.7c0-0.705-0.58-1.017-1.68-1.286
		L490.112,17.191z M495.317,8.191c0-1.161-0.353-1.762-1.182-1.762c-1.39,0-2.219,2.467-2.219,4.21c0,1.16,0.353,1.762,1.161,1.762
		C494.488,12.4,495.317,9.953,495.317,8.191z"/>
	<path d="M501.54,13.064c1.119,0,1.99,0.871,1.99,1.99c0,1.078-0.871,1.949-1.99,1.949c-1.078,0-1.949-0.871-1.949-1.949
		C499.59,13.936,500.461,13.064,501.54,13.064z"/>
</g>
</svg>
