<?xml version="1.0" encoding="utf-8"?>
<!-- Generator: Adobe Illustrator 16.0.0, SVG Export Plug-In . SVG Version: 6.00 Build 0)  -->
<!DOCTYPE svg PUBLIC "-//W3C//DTD SVG 1.1//EN" "http://www.w3.org/Graphics/SVG/1.1/DTD/svg11.dtd">
<svg version="1.1" id="Layer_1" xmlns="http://www.w3.org/2000/svg" xmlns:xlink="http://www.w3.org/1999/xlink" x="0px" y="0px"
	 width="464.25px" height="57.625px" viewBox="8.75 16.081 464.25 57.625" enable-background="new 8.75 16.081 464.25 57.625"
	 xml:space="preserve">
<g>
	<path d="M16.2,56.64h-5.381v-7.312h6.313l1.004-7.746H12.9v-7.316h6.168l1.793-13.844h6.169l-1.794,13.844h6.169L33.2,20.419h6.168
		l-1.793,13.844h5.38v7.316h-6.312l-1.003,7.746h5.235v7.314h-6.169l-1.792,13.844h-6.169l1.794-13.844H22.37l-1.794,13.844h-6.168
		L16.2,56.64z M23.3,49.325h6.169l1.003-7.746h-6.168L23.3,49.325z"/>
	<path d="M55.435,52.551L41.879,18.697h11.834l7.747,21.876l8.249-21.876h11.046L66.268,52.551v17.935H55.435V52.551z"/>
	<path d="M84.343,70.483V18.697h28.262v7.962H95.174v12.768h16.067v7.963H95.174v15.137h18.004v7.959H84.343V70.483z"/>
	<path d="M132.834,71.345c-13.414,0-15.925-7.887-15.351-16.854h10.832c0,4.949,0.214,9.109,6.169,9.109
		c3.657,0,5.451-2.367,5.451-5.885c0-9.322-21.806-9.896-21.806-25.319c0-8.105,3.873-14.561,17.071-14.561
		c10.544,0,15.781,4.734,15.064,15.563H139.72c0-3.873-0.646-7.819-5.021-7.819c-3.515,0-5.595,1.938-5.595,5.524
		c0,9.828,21.806,8.966,21.806,25.25C150.909,69.767,141.083,71.345,132.834,71.345z"/>
	<path d="M152.632,18.697h11.118l6.744,36.366h0.142l8.177-36.366h12.769l7.747,36.366h0.145l6.455-36.366h10.616l-11.477,51.786
		H193.09l-8.106-37.873h-0.143l-8.967,37.873h-11.763L152.632,18.697z"/>
	<path d="M219.557,70.483V18.697h28.261v7.962h-17.43v12.768h16.067v7.963h-16.067v15.137h18.002v7.959h-28.833V70.483z"/>
	<path d="M253.486,44.591c0-13.699,0-26.754,17.86-26.754c11.047,0,15.492,6.096,15.062,17.214h-10.615
		c0-6.887-1.22-9.47-4.447-9.47c-6.096,0-6.886,5.74-6.886,19.01c0,13.271,0.79,19.01,6.886,19.01c5.021,0,4.807-6.455,4.948-10.543
		h10.688c0,13.842-5.521,18.287-15.637,18.287C253.486,71.345,253.486,58.147,253.486,44.591z"/>
	<path d="M303.055,70.483h-10.832V18.697h20.015c7.387,0,12.121,4.732,12.121,13.555c0,6.601-2.583,11.551-9.61,12.696v0.144
		c2.365,0.286,9.395,0.862,9.395,10.188c0,3.3,0.218,13.054,1.224,15.205H314.75c-1.438-3.157-1.148-6.67-1.148-10.041
		c0-6.168,0.573-11.404-7.746-11.404h-2.797v21.443H303.055z M303.055,41.074h4.806c4.305,0,5.521-4.302,5.521-7.603
		c0-4.947-2.078-6.812-5.521-6.812h-4.806V41.074z"/>
	<path d="M330.383,44.591c0-13.699,0-26.754,17.861-26.754s17.861,13.055,17.861,26.754c0,13.557,0,26.754-17.861,26.754
		S330.383,58.147,330.383,44.591z M355.13,44.591c0-13.27-0.788-19.01-6.886-19.01s-6.885,5.74-6.885,19.01
		c0,13.271,0.787,19.01,6.885,19.01S355.13,57.86,355.13,44.591z"/>
	<path d="M368.688,18.697h11.117l6.743,36.366h0.145l8.179-36.366h12.768l7.746,36.366h0.146l6.453-36.366H432.6l-11.477,51.786
		h-11.979l-8.104-37.873h-0.146l-8.966,37.873h-11.765L368.688,18.697z"/>
	<path d="M435.827,18.697h18.078c14.202,0,16.854,9.467,16.854,25.607c0,7.96,1.223,26.179-17.286,26.179h-17.646V18.697z
		 M446.658,62.524h5.234c6.601,0,7.894-4.953,7.894-17.936c0-9.54,0-17.932-7.532-17.932h-5.596V62.524L446.658,62.524z"/>
</g>
</svg>
